<svg xmlns="http://www.w3.org/2000/svg" viewBox="0 0 32 32">
  <rect width="32" height="32" rx="7" fill="#2C5E36" />
  <ellipse cx="16" cy="7.4" rx="5.2" ry="1.5" fill="#eaf2fb" />
  <path d="M11.2 7.6c0 1.6-.3 2-.9 3.4l-.5 13.2a2 2 0 0 0 2 2.1h8.4a2 2 0 0 0 2-2.1l-.5-13.2c-.6-1.4-.9-1.8-.9-3.4z" fill="#ffffff" />
  <path d="M10.4 16.5h11.2l-.45 8.1a1.4 1.4 0 0 1-1.4 1.3h-7.1a1.4 1.4 0 0 1-1.4-1.3z" fill="#eaf2fb" />
  <rect x="11.4" y="5.4" width="9.2" height="2.6" rx="1.2" fill="#7fb2e6" />
</svg>
